HIERARCHY
ROOT joint_0
{
	OFFSET 0.000000 0.000000 0.000000
	CHANNELS 6 Xposition Yposition Zposition Zrotation Yrotation Xrotation 
	JOINT joint_1
	{
		OFFSET 6.004005 -1.946999 100.587036
		CHANNELS 3 Zrotation Yrotation Xrotation
		JOINT joint_2
		{
			OFFSET -4.601006 -0.824997 91.925903
			CHANNELS 3 Zrotation Yrotation Xrotation
			JOINT joint_3
			{
				OFFSET -5.420998 -1.130005 91.774048
				CHANNELS 3 Zrotation Yrotation Xrotation
				JOINT joint_4
				{
					OFFSET 4.308998 -3.777992 123.473999
					CHANNELS 3 Zrotation Yrotation Xrotation
					JOINT joint_5
					{
						OFFSET 25.565002 -6.305008 79.437988
						CHANNELS 3 Zrotation Yrotation Xrotation
						End Site
						{
							OFFSET 0.000000 0.000000 0.000000
						}
					}
				}
				JOINT joint_6
				{
					OFFSET -1.750000 -28.655998 68.557983
					CHANNELS 3 Zrotation Yrotation Xrotation
					JOINT joint_7
					{
						OFFSET -17.692001 -116.544006 -17.244019
						CHANNELS 3 Zrotation Yrotation Xrotation
						JOINT joint_8
						{
							OFFSET 27.063004 -23.640991 -266.895020
							CHANNELS 3 Zrotation Yrotation Xrotation
							JOINT joint_9
							{
								OFFSET 40.722000 -15.761017 -232.488953
								CHANNELS 3 Zrotation Yrotation Xrotation
								End Site
								{
									OFFSET 0.000000 0.000000 0.000000
								}
							}
						}
					}
				}
				JOINT joint_10
				{
					OFFSET 6.593002 24.457001 69.892944
					CHANNELS 3 Zrotation Yrotation Xrotation
					JOINT joint_11
					{
						OFFSET 24.311996 114.920002 -19.872925
						CHANNELS 3 Zrotation Yrotation Xrotation
						JOINT joint_12
						{
							OFFSET 21.081001 15.319000 -268.037964
							CHANNELS 3 Zrotation Yrotation Xrotation
							JOINT joint_13
							{
								OFFSET 27.794006 -8.947001 -234.744080
								CHANNELS 3 Zrotation Yrotation Xrotation
								End Site
								{
									OFFSET 0.000000 0.000000 0.000000
								}
							}
						}
					}
				}
			}
		}
	}
	JOINT joint_14
	{
		OFFSET -6.627998 -80.520004 -98.790039
		CHANNELS 3 Zrotation Yrotation Xrotation
		JOINT joint_15
		{
			OFFSET -43.638000 -13.751999 -502.538971
			CHANNELS 3 Zrotation Yrotation Xrotation
			JOINT joint_16
			{
				OFFSET -39.532999 -9.912994 -398.071007
				CHANNELS 3 Zrotation Yrotation Xrotation
				JOINT joint_17
				{
					OFFSET 174.940004 -34.660995 -75.688002
					CHANNELS 3 Zrotation Yrotation Xrotation
					End Site
					{
						OFFSET 0.000000 0.000000 0.000000
					}
				}
			}
		}
	}
	JOINT joint_18
	{
		OFFSET 12.591003 79.842003 -98.765015
		CHANNELS 3 Zrotation Yrotation Xrotation
		JOINT joint_19
		{
			OFFSET -39.080002 -1.297001 -503.101013
			CHANNELS 3 Zrotation Yrotation Xrotation
			JOINT joint_20
			{
				OFFSET -51.570000 -0.514000 -396.815987
				CHANNELS 3 Zrotation Yrotation Xrotation
				JOINT joint_21
				{
					OFFSET 178.987999 -11.521999 -73.244003
					CHANNELS 3 Zrotation Yrotation Xrotation
					End Site
					{
						OFFSET 0.000000 0.000000 0.000000
					}
				}
			}
		}
	}
}
MOTION
Frames: 18
Frame Time: 0.016667
-1955.608032 953.885071 1099.276001 9.160740 4.068076 2.019752 3.116443 -0.607500 -4.769695 3.095358 -0.268893 1.056140 2.925018 -0.163942 -0.786918 -0.970137 -4.033241 1.758028 0.000000 0.000000 0.000000 5.590380 0.695117 0.166763 -5.216759 0.995152 5.154950 -0.983150 -53.936070 -0.160409 0.000000 0.000000 0.000000 3.739320 8.400675 8.968015 -2.955414 6.868401 8.214750 -2.892826 -42.373960 4.967459 0.000000 0.000000 0.000000 -1.934722 -26.648944 -4.791354 -1.410360 16.302913 2.549051 -0.345926 1.711137 0.207139 0.000000 0.000000 0.000000 -1.957383 -10.265661 4.287335 -0.972715 30.149475 1.516132 1.427709 4.451801 0.790080 0.000000 0.000000 0.000000 
-1935.781372 950.525391 1096.791992 9.632235 3.499209 2.617618 3.220733 -0.671950 -5.193662 3.169833 -0.274117 1.134565 2.987574 -0.188901 -0.849918 -0.937631 -3.686291 1.784302 0.000000 0.000000 0.000000 5.374717 1.512502 0.073559 -5.094721 1.660372 5.751164 -1.105623 -53.051416 -0.685534 0.000000 0.000000 0.000000 3.625613 8.453485 9.125421 -3.039618 6.759932 8.981713 -2.993191 -42.272330 4.214716 0.000000 0.000000 0.000000 -1.052659 -25.763939 -5.274746 -0.633632 14.684267 2.829588 0.344551 3.833008 0.908470 0.000000 0.000000 0.000000 -2.215951 -9.488249 3.960657 -1.392125 31.545230 1.507478 1.118842 5.526513 0.736516 0.000000 0.000000 0.000000 
-1916.525146 946.574890 1092.792969 10.278613 3.058507 3.047672 3.314107 -0.720744 -5.379131 3.203595 -0.248653 1.168813 3.013206 -0.239295 -0.884248 -0.926766 -3.602543 1.769685 0.000000 0.000000 0.000000 5.544210 2.279880 -0.027324 -5.184031 2.363474 6.138631 -1.284372 -52.981659 -0.610804 0.000000 0.000000 0.000000 3.428150 8.279699 9.218987 -3.091255 6.465561 9.695334 -3.102967 -41.903335 3.543231 0.000000 0.000000 0.000000 -0.777692 -25.422250 -5.198888 -0.533550 15.590195 2.346062 0.507274 3.862830 0.979137 0.000000 0.000000 0.000000 -2.753312 -9.413029 3.962392 -2.002991 33.913510 1.284468 0.636483 6.818581 0.631169 0.000000 0.000000 0.000000 
-1897.508545 942.039978 1087.333984 11.110693 2.693145 3.364274 3.395217 -0.781912 -5.390797 3.204302 -0.199905 1.166664 3.007232 -0.315305 -0.909731 -0.928683 -3.722837 1.705980 0.000000 0.000000 0.000000 6.045236 3.006515 -0.135942 -5.405816 3.070650 6.499923 -1.514316 -53.405945 -0.207290 0.000000 0.000000 0.000000 3.126812 7.880494 9.237794 -3.100659 5.982791 10.382629 -3.216010 -41.084175 2.847967 0.000000 0.000000 0.000000 -0.980643 -25.510020 -4.727635 -0.958375 18.694130 1.374551 0.347626 2.391118 0.619558 0.000000 0.000000 0.000000 -3.535079 -9.835890 4.199704 -2.803357 36.959068 0.882864 -0.069794 8.460753 0.465619 0.000000 0.000000 0.000000 
-1878.935913 937.391846 1082.556030 12.122209 2.372531 3.548872 3.427971 -0.666271 -5.258795 3.147732 -0.194256 1.165320 2.944800 -0.346497 -0.893600 -0.949394 -4.044318 1.625017 0.000000 0.000000 0.000000 6.478970 3.527738 -0.191755 -5.656385 3.612853 6.665532 -1.733116 -53.809595 0.256090 0.000000 0.000000 0.000000 2.815083 7.366144 9.124455 -3.099238 5.396722 10.940147 -3.336330 -40.142770 2.325013 0.000000 0.000000 0.000000 -1.361051 -25.441804 -4.120227 -1.626122 21.772176 0.358516 -0.035950 0.735236 0.134334 0.000000 0.000000 0.000000 -4.379894 -10.712442 4.575361 -3.657430 40.380668 0.408266 -0.817574 10.468507 0.303957 0.000000 0.000000 0.000000 
-1860.976440 932.855347 1080.029053 13.249567 2.132208 3.452283 3.391685 -0.382992 -4.768547 3.041817 -0.193693 1.107477 2.843364 -0.272196 -0.810649 -0.997054 -4.602851 1.547078 0.000000 0.000000 0.000000 6.564192 3.693650 -0.178287 -5.858207 3.843631 6.494564 -1.891369 -53.833105 0.566978 0.000000 0.000000 0.000000 2.574043 6.769467 8.798806 -3.086990 4.719827 11.275892 -3.461898 -39.242182 2.196555 0.000000 0.000000 0.000000 -1.681264 -24.904127 -3.348767 -2.337272 23.496035 -0.418663 -0.578417 -0.724816 -0.372733 0.000000 0.000000 0.000000 -5.143136 -12.125158 5.185681 -4.459614 44.137151 -0.041677 -1.361432 13.009829 0.233073 0.000000 0.000000 0.000000 
-1843.545288 928.247742 1078.939941 14.520135 1.959935 3.061999 3.253271 0.044799 -3.840866 2.908042 -0.208272 0.945773 2.732548 -0.117039 -0.672702 -1.072287 -5.405523 1.449848 0.000000 0.000000 0.000000 6.446789 3.572624 -0.144984 -6.046841 3.828226 6.058794 -2.014364 -53.672645 0.820932 0.000000 0.000000 0.000000 2.366436 6.053566 8.270720 -3.043304 3.921209 11.425716 -3.584798 -38.260577 2.389143 0.000000 0.000000 0.000000 -2.082097 -24.076940 -2.274367 -3.190694 24.655653 -1.143503 -1.326733 -2.361883 -0.994462 0.000000 0.000000 0.000000 -5.888572 -14.037155 6.063112 -5.309082 48.214202 -0.464076 -1.733278 16.296248 0.235508 0.000000 0.000000 0.000000 
-1826.545288 923.974976 1078.595947 15.715653 1.979509 2.651870 3.087516 0.501908 -2.823158 2.824248 -0.251906 0.744997 2.682070 0.047781 -0.519777 -1.161441 -6.291290 1.338605 0.000000 0.000000 0.000000 6.295133 3.388371 -0.145232 -6.279342 3.786322 5.473777 -2.139486 -53.559851 1.197291 0.000000 0.000000 0.000000 2.170661 5.428888 7.865732 -3.034333 3.264759 11.413245 -3.736067 -37.615641 2.504685 0.000000 0.000000 0.000000 -2.387998 -23.281009 -1.274855 -3.990322 25.400823 -1.644665 -2.063403 -3.820653 -1.573879 0.000000 0.000000 0.000000 -6.504888 -16.303486 6.882151 -6.170874 52.137725 -0.895428 -2.037615 19.246876 0.209244 0.000000 0.000000 0.000000 
-1809.917114 920.306213 1078.634033 16.734038 2.349164 2.417376 2.994831 0.812648 -1.974805 2.810380 -0.282661 0.560450 2.695201 0.144105 -0.379503 -1.258115 -7.162779 1.229307 0.000000 0.000000 0.000000 6.207644 3.313579 -0.222099 -6.603569 3.884108 4.839369 -2.298492 -53.649825 1.814743 0.000000 0.000000 0.000000 1.966115 5.055366 7.865606 -3.121592 2.973091 11.202584 -3.958550 -37.641106 2.255283 0.000000 0.000000 0.000000 -2.426365 -22.778557 -0.670479 -4.627292 25.770850 -1.736709 -2.661825 -4.915111 -2.024591 0.000000 0.000000 0.000000 -6.902949 -19.005298 7.467295 -7.026094 55.857685 -1.395422 -2.447615 20.893374 0.064439 0.000000 0.000000 0.000000 
-1793.696411 917.078918 1079.297974 17.628198 3.008708 2.241742 2.972075 1.046602 -1.108274 2.844196 -0.295352 0.333147 2.754715 0.173818 -0.237726 -1.368540 -8.075135 1.118857 0.000000 0.000000 0.000000 6.117752 3.276213 -0.379038 -7.006125 4.045968 4.137838 -2.478171 -53.857769 2.611147 0.000000 0.000000 0.000000 1.768783 4.855067 8.146902 -3.278384 2.945918 10.805186 -4.249752 -38.171567 1.778248 0.000000 0.000000 0.000000 -2.243755 -22.437312 -0.282809 -5.164460 25.733541 -1.506817 -3.197976 -5.825735 -2.412732 0.000000 0.000000 0.000000 -7.060650 -22.190252 7.920509 -7.903507 59.576601 -1.899478 -2.919281 21.605897 -0.147459 0.000000 0.000000 0.000000 
-1777.876709 914.344299 1080.324951 18.161274 3.657609 2.140737 2.990387 1.504537 -0.263467 2.995935 -0.361158 0.105170 2.945113 0.240159 -0.115489 -1.477745 -8.975739 0.998498 0.000000 0.000000 0.000000 6.034716 3.158401 -0.572137 -7.466127 4.166268 3.300991 -2.652167 -54.102984 3.571901 0.000000 0.000000 0.000000 1.616328 4.722493 8.462692 -3.430883 2.968554 10.517038 -4.562155 -38.917742 1.133331 0.000000 0.000000 0.000000 -1.932844 -22.055905 0.037563 -5.526140 25.492456 -1.250758 -3.604983 -6.528768 -2.708261 0.000000 0.000000 0.000000 -6.868136 -25.294408 8.000049 -8.606262 62.865216 -2.235698 -3.305216 21.259540 -0.340603 0.000000 0.000000 0.000000 
-1762.525513 912.160461 1081.624023 18.149243 4.088008 2.136396 2.971747 2.418277 0.478706 3.350958 -0.508016 -0.075233 3.372834 0.414708 -0.017863 -1.571950 -9.851999 0.855595 0.000000 0.000000 0.000000 5.970566 2.865383 -0.792650 -7.979995 4.155974 2.255852 -2.806503 -54.333072 4.724353 0.000000 0.000000 0.000000 1.540037 4.589486 8.650540 -3.530832 2.892634 10.563970 -4.873089 -39.745832 0.308959 0.000000 0.000000 0.000000 -1.558275 -21.490480 0.366080 -5.639907 25.170264 -1.177982 -3.821657 -6.970622 -2.877701 0.000000 0.000000 0.000000 -6.291653 -27.937862 7.539973 -8.946022 65.496890 -2.364245 -3.532500 19.535460 -0.479956 0.000000 0.000000 0.000000 
-1747.646729 910.503418 1083.305054 17.694584 4.413378 2.211810 2.903650 3.688852 1.113342 3.890881 -0.685495 -0.227866 4.013732 0.622372 0.060786 -1.654268 -10.716030 0.708266 0.000000 0.000000 0.000000 5.913699 2.455182 -1.083320 -8.564963 4.051397 1.056891 -2.952987 -54.574711 6.085108 0.000000 0.000000 0.000000 1.539974 4.498918 8.787897 -3.602003 2.795122 10.854411 -5.205080 -40.754001 -0.715511 0.000000 0.000000 0.000000 -1.096198 -20.803993 0.639389 -5.538017 24.690332 -1.183972 -3.874737 -7.181685 -2.937747 0.000000 0.000000 0.000000 -5.389615 -30.336092 6.657210 -8.970177 67.634954 -2.394115 -3.648906 16.541592 -0.612108 0.000000 0.000000 0.000000 
-1732.921631 909.293701 1084.925049 17.086683 4.771034 2.350128 2.774294 5.041513 1.648777 4.479202 -0.875499 -0.369759 4.727618 0.834405 0.122940 -1.718844 -11.504601 0.574373 0.000000 0.000000 0.000000 5.840116 2.036816 -1.417710 -9.179329 3.919144 -0.129451 -3.083819 -54.862070 7.518802 0.000000 0.000000 0.000000 1.561895 4.458192 8.884700 -3.639848 2.738502 11.206290 -5.512489 -41.737090 -1.707774 0.000000 0.000000 0.000000 -0.632153 -20.149482 0.805729 -5.347398 24.176575 -1.158693 -3.837051 -7.351120 -2.954467 0.000000 0.000000 0.000000 -4.306087 -32.628771 5.530233 -8.787991 69.154820 -2.331667 -3.502293 13.282400 -0.685649 0.000000 0.000000 0.000000 
-1718.148926 908.508423 1086.245972 16.522144 5.251214 2.560056 2.595245 6.299143 2.085565 5.018340 -1.082360 -0.503113 5.416949 1.055554 0.169629 -1.760369 -12.178768 0.462608 0.000000 0.000000 0.000000 5.723299 1.670018 -1.759523 -9.789746 3.799286 -1.205730 -3.191542 -55.219263 8.930567 0.000000 0.000000 0.000000 1.552704 4.468261 8.959428 -3.651706 2.772094 11.479749 -5.764301 -42.557390 -2.493627 0.000000 0.000000 0.000000 -0.203244 -19.608198 0.805879 -5.157126 23.660008 -1.014136 -3.769454 -7.585042 -2.972684 0.000000 0.000000 0.000000 -3.116415 -34.920937 4.222624 -8.456585 69.996248 -2.163597 -2.951370 10.304278 -0.629524 0.000000 0.000000 0.000000 
-1703.451294 908.179932 1087.439941 15.900012 5.813023 2.845417 2.382540 7.549702 2.398840 5.556887 -1.278979 -0.617376 6.115735 1.261275 0.199058 -1.777411 -12.752739 0.372467 0.000000 0.000000 0.000000 5.564770 1.319753 -2.127364 -10.410286 3.666217 -2.222549 -3.279993 -55.625976 10.373925 0.000000 0.000000 0.000000 1.535771 4.530768 9.009694 -3.644582 2.878608 11.739595 -5.979223 -43.282390 -3.165321 0.000000 0.000000 0.000000 0.227886 -19.126767 0.645816 -4.927457 23.090173 -0.784289 -3.648562 -7.814149 -2.969490 0.000000 0.000000 0.000000 -1.804196 -37.143984 2.692527 -7.921769 70.135979 -1.924642 -2.087136 7.293279 -0.479523 0.000000 0.000000 0.000000 
-1688.778687 908.164734 1088.227051 15.206427 6.444043 3.139264 2.113872 8.769869 2.629755 6.068304 -1.462867 -0.721885 6.798941 1.439728 0.216176 -1.781576 -13.242173 0.324373 0.000000 0.000000 0.000000 5.425203 0.977146 -2.514840 -11.028436 3.519406 -3.195685 -3.349021 -56.043711 11.818512 0.000000 0.000000 0.000000 1.565832 4.628084 9.029512 -3.617693 3.032797 12.027137 -6.148994 -43.878392 -3.832393 0.000000 0.000000 0.000000 0.630978 -18.803327 0.425234 -4.666168 22.722529 -0.537710 -3.452651 -8.117031 -2.951822 0.000000 0.000000 0.000000 -0.544359 -39.175848 1.127008 -7.246861 69.490582 -1.652634 -1.242783 4.626781 -0.322959 0.000000 0.000000 0.000000 
-1674.145264 908.366943 1088.391968 14.449110 7.163849 3.397187 1.804334 9.891404 2.809147 6.517264 -1.619296 -0.826216 7.420160 1.582933 0.232837 -1.780222 -13.653139 0.327112 0.000000 0.000000 0.000000 5.350783 0.627093 -2.904668 -11.639691 3.360489 -4.167046 -3.398988 -56.446234 13.259435 0.000000 0.000000 0.000000 1.683777 4.755684 9.033841 -3.582579 3.236975 12.356206 -6.270190 -44.324441 -4.578292 0.000000 0.000000 0.000000 1.001041 -18.717317 0.205644 -4.380830 22.695243 -0.318033 -3.176081 -8.561598 -2.930810 0.000000 0.000000 0.000000 0.576495 -41.003724 -0.362448 -6.470603 68.024836 -1.306523 -0.511606 2.617676 -0.166493 0.000000 0.000000 0.000000 
